<?xml version="1.0" standalone="no"?>
<!DOCTYPE svg PUBLIC "-//W3C//DTD SVG 20010904//EN"
 "http://www.w3.org/TR/2001/REC-SVG-20010904/DTD/svg10.dtd">
<svg version="1.0" xmlns="http://www.w3.org/2000/svg"
 width="202.000000pt" height="202.000000pt" viewBox="0 0 202.000000 202.000000"
 preserveAspectRatio="xMidYMid meet">

<g transform="translate(0.000000,202.000000) scale(0.100000,-0.100000)"
fill="#000000" stroke="none">
<path d="M897 1999 c-406 -43 -747 -341 -853 -745 -23 -85 -26 -120 -26 -244
0 -124 3 -159 26 -245 89 -341 351 -614 680 -709 470 -137 958 75 1176 509 76
151 103 265 103 445 0 125 -4 159 -27 245 -90 342 -351 614 -680 710 -75 21
-257 48 -305 44 -9 -1 -51 -5 -94 -10z m651 -521 l3 -118 -196 0 -195 0 0
-470 0 -470 -150 0 -150 0 0 470 0 470 -195 0 -195 0 0 120 0 120 538 -2 537
-3 3 -117z"/>
</g>
</svg>
